<svg fill="#000000" width="64px" height="64px" viewBox="-30.72 -30.72 317.44 317.44" xmlns="http://www.w3.org/2000/svg" stroke="#000000"><g id="SVGRepo_bgCarrier" stroke-width="0" transform="translate(0,0), scale(1)"><rect x="-30.72" y="-30.72" width="317.44" height="317.44" rx="158.72" fill="#ffffff" strokewidth="0"></rect></g><g id="SVGRepo_tracerCarrier" stroke-linecap="round" stroke-linejoin="round" stroke="#CCCCCC" stroke-width="26.112000000000002"> <path d="M56.402 54l157.203 70-37.957 37 29.604 29.188c1.58 1.558 1.649 4.135.165 5.767l-6.73 7.405a3.756 3.756 0 0 1-5.5.122L163 173.092l-39 39.812L56.402 54zm32.593 30.615c-2.503-1.157-3.628-.05-2.514 2.471l41.64 94.202c.893 2.021 2.859 2.38 4.397.793l48.982-50.53c1.535-1.584 1.15-3.62-.847-4.545l-91.658-42.39z" fill-rule="evenodd"></path> </g><g id="SVGRepo_iconCarrier"> <path d="M56.402 54l157.203 70-37.957 37 29.604 29.188c1.58 1.558 1.649 4.135.165 5.767l-6.73 7.405a3.756 3.756 0 0 1-5.5.122L163 173.092l-39 39.812L56.402 54zm32.593 30.615c-2.503-1.157-3.628-.05-2.514 2.471l41.64 94.202c.893 2.021 2.859 2.38 4.397.793l48.982-50.53c1.535-1.584 1.15-3.62-.847-4.545l-91.658-42.39z" fill-rule="evenodd"></path> </g></svg>